<svg width="37" height="22" viewBox="0 0 37 22" fill="none" xmlns="http://www.w3.org/2000/svg">
<path d="M14.9028 9.87258C17.6649 10.6039 19.0139 12.615 19.0139 15.2964C19.0139 19.6842 15.1597 21.5734 10.9844 21.5734H0V0H10.7274C14.5816 0 17.9861 1.03601 17.9861 5.36288C17.9861 7.49584 16.8941 8.89751 14.9028 9.87258ZM4.94618 3.65651V8.71468H10.0208C11.8194 8.71468 13.1042 7.98338 13.1042 6.15512C13.1042 4.14404 11.4983 3.65651 9.69965 3.65651H4.94618ZM10.342 17.9169C12.3333 17.9169 14.0035 17.2465 14.0035 15.0526C14.0035 12.8587 12.6545 11.9446 10.4062 11.9446H4.94618V17.9169H10.342ZM33.3385 3.22992H24.1528V1.09695H33.3385V3.22992ZM37 14.0166C37 14.2604 36.9358 14.5651 36.9358 14.8089H25.0521C25.0521 17.3075 26.4653 18.7701 29.099 18.7701C30.4479 18.7701 32.2465 18.0997 32.6962 16.759H36.6788C35.4583 20.2936 32.8889 22 28.9705 22C23.7674 22 20.4913 18.6482 20.4913 13.7729C20.4913 9.08033 23.8958 5.48476 28.9705 5.48476C34.1094 5.48476 37 9.38504 37 14.0166ZM25.0521 12.0665H32.4392C32.2465 9.99446 31.0903 8.77562 28.7778 8.77562C26.658 8.77562 25.1806 10.0554 25.0521 12.0665Z" fill="#A076F9"/>
</svg>
