<svg width="1920" height="824" viewBox="0 0 1920 824" fill="none" xmlns="http://www.w3.org/2000/svg">
<path d="M1632.97 840.809C1629.97 831.307 1626.47 822.14 1622.17 813.197C1617.97 804.366 1613.07 795.87 1607.77 787.821C1602.47 779.66 1596.46 772.171 1590.26 765.016L1585.46 759.762C1583.86 758.085 1582.16 756.408 1580.46 754.732L1577.96 752.272C1577.16 751.378 1576.26 750.707 1575.36 749.925L1570.16 745.229C1555.96 732.933 1540.46 722.76 1524.16 714.152C1507.96 705.656 1490.95 698.837 1473.75 693.471L1467.25 691.459L1464.05 690.453C1462.95 690.118 1461.85 689.894 1460.75 689.559L1447.65 686.205L1434.45 683.41L1431.15 682.74C1430.05 682.516 1428.95 682.404 1427.85 682.181L1421.25 681.063L1414.65 679.945C1412.45 679.498 1410.25 679.274 1407.95 679.051L1394.54 677.262L1381.14 676.032L1374.44 675.362L1367.74 675.026C1331.94 672.79 1295.93 673.685 1260.13 676.591L1260.23 676.591C1232.53 681.398 1205.02 687.099 1177.62 694.03C1150.32 700.849 1123.22 709.234 1096.71 719.071C1070.21 729.02 1044.21 740.981 1019.21 754.955C1006.7 761.998 994.403 769.488 982.302 777.425C970.201 785.362 958.3 793.522 946.299 801.683C934.297 809.731 922.196 817.78 909.695 824.935C897.194 832.201 884.392 838.573 871.191 844.051C844.788 854.894 816.985 861.266 789.183 864.955C775.181 866.744 761.18 867.973 747.178 868.532C733.177 868.979 719.076 868.644 705.074 867.191C691.073 865.738 677.171 863.278 663.47 859.813C649.768 856.235 636.367 851.54 623.166 845.951C596.863 834.66 572.261 819.122 548.758 801.906C525.256 784.691 502.854 765.91 479.751 748.024C456.749 730.138 433.047 713.37 407.644 700.179C394.943 693.583 381.941 687.882 368.54 683.41C355.139 678.827 341.437 675.473 327.636 673.014L317.235 671.225L306.834 669.772C303.333 669.213 299.833 668.99 296.433 668.542L291.232 667.983C289.532 667.76 287.732 667.76 286.032 667.648C272.03 666.642 258.029 666.307 244.027 667.089C230.026 667.872 216.124 669.66 202.323 672.343C188.522 675.026 174.92 678.715 161.419 682.851C147.917 686.987 134.516 691.571 121.015 695.931C107.513 700.29 94.012 704.538 80.4105 708.116C66.8092 711.693 53.0078 714.599 39.1065 716.835C25.2051 719.071 11.2036 720.412 -2.79784 721.195C11.2036 720.3 25.2051 718.847 39.0065 716.611C52.9078 714.376 66.6091 711.357 80.3106 707.668C93.912 703.979 107.413 699.731 120.815 695.26C134.216 690.788 147.617 686.205 161.119 681.957C174.62 677.821 188.322 674.02 202.123 671.225C215.924 668.431 229.926 666.642 243.927 665.859C257.929 664.965 272.03 665.3 286.032 666.307C287.832 666.418 289.532 666.53 291.332 666.642L296.533 667.201C300.033 667.536 303.533 667.872 307.034 668.319L317.535 669.772L327.936 671.449C341.837 673.796 355.539 677.262 369.04 681.845C382.441 686.429 395.643 692.018 408.344 698.614C433.846 711.805 457.749 728.573 480.851 746.347C503.954 764.233 526.356 783.014 549.858 800.118C573.261 817.221 597.763 832.648 623.866 843.827C636.867 849.416 650.268 854.112 663.87 857.577C677.471 861.042 691.373 863.502 705.274 864.843C719.175 866.296 733.177 866.632 747.178 866.185C761.18 865.626 775.081 864.396 788.983 862.607C816.785 858.918 844.288 852.546 870.591 841.815C883.692 836.449 896.493 830.077 908.895 822.923C921.296 815.768 933.397 807.831 945.398 799.67C957.4 791.622 969.301 783.349 981.502 775.412C993.603 767.475 1005.9 759.986 1018.51 752.943C1043.61 738.857 1069.61 726.896 1096.31 716.947C1122.92 706.998 1150.02 698.725 1177.42 691.906C1204.82 685.087 1232.43 679.386 1260.13 674.691C1295.93 671.784 1332.04 671.114 1367.84 673.349L1374.54 673.797L1381.24 674.467L1394.64 675.809L1408.05 677.597C1410.25 677.933 1412.55 678.156 1414.75 678.603L1421.45 679.721L1428.15 680.839C1429.25 681.063 1430.35 681.175 1431.45 681.398L1434.75 682.069L1447.95 684.975L1461.05 688.441C1462.15 688.776 1463.25 689 1464.35 689.335L1467.55 690.341L1474.05 692.353C1491.35 697.831 1508.26 704.762 1524.56 713.37C1540.76 721.977 1556.36 732.262 1570.46 744.671L1575.66 749.477C1576.56 750.26 1577.46 751.042 1578.26 751.937L1580.76 754.508C1582.46 756.185 1584.16 757.862 1585.76 759.538L1590.56 764.792C1596.76 772.059 1602.77 779.549 1608.07 787.709C1613.37 795.87 1618.17 804.366 1622.37 813.197C1626.57 822.028 1630.07 831.307 1632.97 840.809Z" fill="#A076F9" fill-opacity="0.1"/>
<path d="M630.166 900.168C625.466 901.845 620.565 902.628 615.665 903.075C610.764 903.522 605.864 903.41 600.863 903.075C591.062 902.292 581.261 900.392 571.76 897.486C552.759 891.672 534.557 882.618 517.455 871.886C508.854 866.52 500.553 860.595 492.352 854.447L486.252 849.752C484.252 848.187 482.251 846.51 480.251 844.945C476.251 841.703 472.35 838.349 468.45 834.996C452.948 821.357 438.147 806.825 424.045 791.51C395.743 760.88 369.74 727.679 345.337 693.136C320.835 658.705 298.133 622.709 276.33 586.042L276.43 586.154C267.53 574.416 258.629 562.79 249.128 551.611L245.627 547.364C244.427 545.91 243.227 544.569 242.027 543.227L234.826 534.955C229.926 529.589 225.025 524.223 219.925 519.081C214.924 513.827 209.724 508.796 204.523 503.766L196.622 496.388C194.022 493.929 191.222 491.693 188.522 489.233C177.62 479.843 166.319 471.124 154.618 463.187C142.817 455.25 130.616 448.207 118.014 442.17C105.413 436.134 92.3118 431.215 79.0105 427.526C65.6091 423.949 52.0077 421.601 38.3063 420.819C31.4056 420.372 24.6049 420.372 17.7042 420.595C10.8035 420.931 4.00285 421.49 -2.89785 422.384C3.90281 421.378 10.8035 420.707 17.7042 420.372C24.6049 420.148 31.5056 420.036 38.3063 420.372C52.1076 421.042 65.8091 423.278 79.2104 426.632C106.113 433.674 131.716 446.083 155.318 461.845C167.119 469.782 178.521 478.502 189.522 487.78C192.222 490.128 195.022 492.475 197.722 494.935L205.723 502.201C210.924 507.231 216.224 512.262 221.225 517.516C226.325 522.658 231.226 528.136 236.226 533.39L243.427 541.662C244.627 543.004 245.827 544.345 247.028 545.798L250.528 550.046C260.029 561.225 269.03 572.851 277.931 584.589C288.832 602.922 299.933 621.032 311.434 638.807C317.135 647.75 322.935 656.581 328.836 665.412C331.736 669.772 334.736 674.132 337.737 678.492C340.737 682.851 343.737 687.211 346.738 691.459C371.04 726.002 396.943 759.203 425.146 789.833C439.247 805.148 453.948 819.792 469.25 833.431C473.15 836.784 476.951 840.25 480.951 843.38C482.951 844.945 484.852 846.622 486.852 848.299L492.852 852.994C500.953 859.142 509.254 865.179 517.755 870.544C534.857 881.388 552.759 890.666 571.66 896.591C581.061 899.609 590.762 901.622 600.563 902.516C605.464 902.963 610.364 903.075 615.265 902.628C617.765 902.516 620.165 902.181 622.566 901.733C625.466 901.622 627.866 901.063 630.166 900.168Z" fill="#A076F9" fill-opacity="0.1"/>
<path d="M261.829 -31.2542L262.829 -31.0307C252.728 19.8331 230.526 67.9022 196.722 111.723C150.318 171.866 83.3109 222.282 -2.59787 261.408L-2.99783 260.402C185.021 174.66 244.827 54.4876 261.829 -31.2542Z" fill="#A076F9" fill-opacity="0.1"/>
<path d="M584.562 -31.5897L585.262 -30.8072C533.057 27.3229 428.046 135.534 310.734 207.191C200.323 274.711 97.7124 302.546 -2.9978 292.262L-2.89783 291.144C97.6124 301.317 200.023 273.593 310.234 206.185C427.446 134.64 532.457 26.5403 584.562 -31.5897Z" fill="#A076F9" fill-opacity="0.1"/>
<path d="M1940.6 404.833C1928.2 405.057 1915.8 404.498 1903.4 403.604C1890.99 402.709 1878.69 401.368 1866.39 399.467C1841.79 395.778 1817.39 390.077 1793.78 381.581C1781.98 377.333 1770.38 372.303 1759.18 366.154C1747.98 360.006 1737.28 352.963 1727.38 344.467C1717.48 336.083 1708.58 326.022 1701.18 314.732C1697.47 309.142 1694.27 303.106 1691.07 297.181C1689.47 294.163 1687.97 291.144 1686.47 288.126C1684.97 285.108 1683.57 281.978 1682.07 278.959C1670.67 254.254 1660.77 228.878 1651.27 203.278C1641.77 177.679 1632.77 151.856 1624.07 125.921C1615.47 99.9857 1607.07 73.8271 1598.96 47.6686C1590.86 21.5101 1582.96 -4.76026 1575.26 -31.1424C1583.26 -4.98383 1591.46 21.1747 1599.86 47.2214C1608.17 73.2682 1616.77 99.315 1625.57 125.25C1634.47 151.073 1643.37 176.896 1652.97 202.496C1662.57 227.984 1672.57 253.36 1683.87 277.953C1685.27 280.971 1686.67 284.102 1688.17 287.12C1689.67 290.138 1691.17 293.156 1692.67 296.175C1695.77 302.099 1698.97 308.136 1702.58 313.614C1709.78 324.793 1718.48 334.63 1728.28 343.014C1738.08 351.398 1748.68 358.553 1759.78 364.589C1762.58 366.154 1765.38 367.496 1768.18 368.949C1770.98 370.291 1773.88 371.632 1776.68 372.973C1782.38 375.545 1788.18 377.892 1794.08 380.128C1817.59 388.847 1841.89 394.549 1866.39 398.573C1878.59 400.585 1890.99 402.15 1903.3 403.156C1915.8 404.051 1928.2 404.833 1940.6 404.833Z" fill="#A076F9" fill-opacity="0.1"/>
<path d="M1965.9 286.337C1959 286.002 1952.1 285.108 1945.2 284.213C1938.3 283.319 1931.5 282.201 1924.7 280.971C1911.1 278.4 1897.5 275.494 1883.99 272.028C1870.49 268.563 1857.09 264.762 1843.79 260.402C1830.49 256.266 1817.29 251.459 1804.19 246.652C1751.68 226.866 1700.98 201.49 1652.27 172.201L1643.17 166.612C1640.17 164.711 1637.07 162.923 1634.07 160.91L1616.17 149.284L1607.17 143.471L1598.36 137.435C1592.46 133.41 1586.56 129.386 1580.76 125.25C1557.36 108.817 1534.26 91.825 1511.56 74.0506C1488.85 56.388 1466.45 38.1665 1444.05 20.1686C1432.85 11.1137 1421.55 2.17057 1410.15 -6.54894C1398.64 -15.1567 1387.04 -23.5408 1375.04 -31.2542C1387.14 -23.6526 1398.84 -15.4921 1410.45 -6.99615C1421.95 1.49979 1433.35 10.4429 1444.65 19.2742C1467.25 37.1604 1489.65 55.1584 1512.46 72.5974C1535.26 90.0364 1558.36 107.14 1581.76 123.461C1587.56 127.597 1593.56 131.622 1599.36 135.646L1608.27 141.683L1617.27 147.496L1635.17 159.122C1638.17 161.134 1641.17 162.923 1644.27 164.711L1653.37 170.301C1677.67 184.945 1702.48 198.695 1727.68 211.215C1752.98 223.736 1778.68 235.026 1804.79 245.087C1830.89 255.148 1857.49 263.868 1884.39 271.022C1897.8 274.711 1911.4 277.73 1925 280.412C1931.8 281.754 1938.6 282.872 1945.5 283.99C1952.1 284.996 1959 285.89 1965.9 286.337Z" fill="#A076F9" fill-opacity="0.1"/>
</svg>
