<svg width="146" height="254" viewBox="0 0 146 254" fill="none" xmlns="http://www.w3.org/2000/svg">
<g opacity="0.75" filter="url(#filter0_d_1023_407)">
<path d="M26.8999 111.649C27.541 106.917 25.4345 103.406 22.1984 100.384C18.8097 97.2088 15.7262 93.7896 13.3449 89.7597C6.62849 78.4028 10.5668 55.7501 26.1672 53.8878C27.9379 53.6741 29.7086 53.3688 31.4793 53.3383C36.6998 51.5066 40.1496 47.9957 41.8287 42.7752C42.9278 41.1571 44.3016 39.6307 45.7975 38.379C49.7053 35.1123 54.3762 34.9902 58.4061 38.0432C60.6653 39.7528 62.7107 41.7372 64.8783 43.5995C66.7711 45.2175 68.7555 46.7135 71.2894 47.263C74.1286 47.8736 76.632 47.2935 78.7996 45.3396C79.8987 44.3627 80.9367 43.2942 81.9747 42.2562C86.8288 37.2799 95.1938 37.1273 100.14 42.0425C101.758 43.6605 103.192 45.4618 104.536 47.2935C106.093 49.4306 107.986 50.4075 110.672 50.1022C113.664 49.7664 116.442 50.6212 118.793 52.514C125.265 57.6735 118.304 65.6111 125.204 71.5948C131.127 76.7237 130.058 88.6301 122.609 92.4768C118.732 94.4917 118.579 95.6213 120.838 99.4375C124.899 106.245 125.051 116.351 115.007 118.762C112.199 119.434 109.329 120.045 106.673 121.144C105.177 121.754 103.773 123.067 102.826 124.41C101.147 130.15 101.91 135.828 105.146 141.476C106.001 145.415 105.849 149.383 104.383 153.199C102.032 159.336 91.9577 164.129 88.63 155.947C87.4089 152.925 87.1952 149.78 87.4089 146.514C88.05 142.82 87.7752 139.248 86.6151 135.798C83.5011 133.081 80.8146 133.539 78.5859 137.202C75.8383 141.568 69.6103 141.598 66.8016 136.988C65.8858 135.462 65.0309 133.905 64.054 132.409C62.3444 129.814 60.421 129.539 57.8871 131.279C52.9719 134.668 48.362 133.783 44.8816 129.203C40.577 123.556 34.8986 134.302 30.0444 125.479C27.6021 121.235 26.961 116.473 26.8999 111.649Z" fill="url(#paint0_linear_1023_407)" fill-opacity="0.15"/>
<path d="M129.692 67.4428C129.631 62.9856 130.333 59.1694 133.325 56.086C140.377 48.9116 145.231 71.3811 137.813 76.6016C135.096 78.525 132.623 77.9144 131.157 74.9225C129.967 72.4496 129.6 69.7936 129.692 67.4428Z" fill="url(#paint1_linear_1023_407)" fill-opacity="0.15"/>
<path d="M9.00974 105.085C9.00974 88.8132 25.984 105.268 21.4962 111.374C19.7866 113.695 16.7642 114.275 13.9555 112.779C10.5057 110.977 9.10133 107.925 9.00974 105.085Z" fill="url(#paint2_linear_1023_407)" fill-opacity="0.15"/>
<path d="M104.139 32.2121C103.925 36.1198 100.964 37.86 97.6056 35.9671C92.5072 32.6089 92.1714 29.4644 96.5982 26.5031C99.3458 26.442 101.666 27.5105 103.254 29.8308C103.711 30.5024 103.864 31.3878 104.139 32.2121Z" fill="url(#paint3_linear_1023_407)" fill-opacity="0.15"/>
<path d="M67.4733 149.139C67.8702 147.582 68.1449 145.964 68.725 144.499C71.7779 141.476 74.0676 141.965 75.6246 145.964C75.9604 152.711 73.8539 155.489 69.305 154.299C67.9923 152.864 67.7175 151.062 67.4733 149.139Z" fill="url(#paint4_linear_1023_407)" fill-opacity="0.15"/>
<path d="M6.47583 43.0804C6.68953 39.8749 8.49076 38.1652 11.9406 37.921C13.6502 38.5011 14.5966 40.0275 14.3829 41.9814C14.1387 44.2711 12.9175 45.9807 10.9942 47.1103C8.58235 48.5146 6.47583 46.8966 6.47583 43.0804Z" fill="url(#paint5_linear_1023_407)" fill-opacity="0.15"/>
<path d="M31.0824 44.0268C30.9908 46.9881 26.8083 49.8579 24.2439 48.7283C21.4046 45.2175 22.4426 42.653 27.3273 40.9739C29.2507 40.4244 31.1435 42.0119 31.0824 44.0268Z" fill="url(#paint6_linear_1023_407)" fill-opacity="0.15"/>
<path d="M126.181 105.726C126.517 103.04 127.952 101.666 130.516 101.605C133.325 103.193 133.63 105.543 131.493 108.688C128.074 109.756 126.303 108.779 126.181 105.726Z" fill="url(#paint7_linear_1023_407)" fill-opacity="0.15"/>
<path d="M23.389 130.486C24.0301 127.738 25.5261 127.097 27.8768 128.593C28.2737 128.898 28.6706 129.234 29.0675 129.539C30.0749 130.333 30.5023 131.402 30.1055 132.623C28.1516 138.759 23.9691 132.226 23.389 130.486Z" fill="url(#paint8_linear_1023_407)" fill-opacity="0.15"/>
<path d="M68.3891 162.053C69.305 157.504 73.8844 158.634 73.3043 162.999C71.2894 166.632 69.6713 166.297 68.3891 162.053Z" fill="url(#paint9_linear_1023_407)" fill-opacity="0.15"/>
<path d="M24.8999 109.649C25.541 104.917 23.4345 101.406 20.1984 98.3839C16.8097 95.2088 13.7262 91.7896 11.3449 87.7597C4.62849 76.4028 8.56676 53.7501 24.1672 51.8878C25.9379 51.6741 27.7086 51.3688 29.4793 51.3383C34.6998 49.5066 38.1496 45.9957 39.8287 40.7752C40.9278 39.1571 42.3016 37.6307 43.7975 36.379C47.7053 33.1123 52.3762 32.9902 56.4061 36.0432C58.6653 37.7528 60.7107 39.7372 62.8783 41.5995C64.7711 43.2175 66.7555 44.7135 69.2894 45.263C72.1286 45.8736 74.632 45.2935 76.7996 43.3396C77.8987 42.3627 78.9367 41.2942 79.9747 40.2562C84.8288 35.2799 93.1938 35.1273 98.1396 40.0425C99.7576 41.6605 101.192 43.4618 102.536 45.2935C104.093 47.4306 105.986 48.4075 108.672 48.1022C111.664 47.7664 114.442 48.6212 116.793 50.514C123.265 55.6735 116.304 63.6111 123.204 69.5948C129.127 74.7237 128.058 86.6301 120.609 90.4768C116.732 92.4917 116.579 93.6213 118.838 97.4375C122.899 104.245 123.051 114.351 113.007 116.762C110.199 117.434 107.329 118.045 104.673 119.144C103.177 119.754 101.773 121.067 100.826 122.41C99.147 128.15 99.9103 133.828 103.146 139.476C104.001 143.415 103.849 147.383 102.383 151.199C100.032 157.336 89.9577 162.129 86.63 153.947C85.4089 150.925 85.1952 147.78 85.4089 144.514C86.05 140.82 85.7752 137.248 84.6151 133.798C81.5011 131.081 78.8146 131.539 76.5859 135.202C73.8383 139.568 67.6103 139.598 64.8016 134.988C63.8858 133.462 63.0309 131.905 62.054 130.409C60.3444 127.814 58.421 127.539 55.8871 129.279C50.9719 132.668 46.362 131.783 42.8816 127.203C38.577 121.556 32.8986 132.302 28.0444 123.479C25.6021 119.235 24.961 114.473 24.8999 109.649Z" fill="url(#paint10_linear_1023_407)" fill-opacity="0.8"/>
<path d="M127.692 65.4428C127.631 60.9856 128.333 57.1694 131.325 54.086C138.377 46.9116 143.231 69.3811 135.813 74.6016C133.096 76.525 130.623 75.9144 129.157 72.9225C127.967 70.4496 127.6 67.7936 127.692 65.4428Z" fill="url(#paint11_linear_1023_407)" fill-opacity="0.8"/>
<path d="M7.00974 103.085C7.00974 86.8132 23.984 103.268 19.4962 109.374C17.7866 111.695 14.7642 112.275 11.9555 110.779C8.50568 108.977 7.10133 105.925 7.00974 103.085Z" fill="url(#paint12_linear_1023_407)" fill-opacity="0.8"/>
<path d="M102.139 30.2121C101.925 34.1198 98.9638 35.86 95.6056 33.9671C90.5072 30.6089 90.1714 27.4644 94.5982 24.5031C97.3458 24.442 99.666 25.5105 101.254 27.8308C101.711 28.5024 101.864 29.3878 102.139 30.2121Z" fill="url(#paint13_linear_1023_407)" fill-opacity="0.8"/>
<path d="M65.4733 147.139C65.8702 145.582 66.1449 143.964 66.725 142.499C69.7779 139.476 72.0676 139.965 73.6246 143.964C73.9604 150.711 71.8539 153.489 67.305 152.299C65.9923 150.864 65.7175 149.062 65.4733 147.139Z" fill="url(#paint14_linear_1023_407)" fill-opacity="0.8"/>
<path d="M4.47583 41.0804C4.68953 37.8749 6.49076 36.1652 9.94056 35.921C11.6502 36.5011 12.5966 38.0275 12.3829 39.9814C12.1387 42.2711 10.9175 43.9807 8.99416 45.1103C6.58235 46.5146 4.47583 44.8966 4.47583 41.0804Z" fill="url(#paint15_linear_1023_407)" fill-opacity="0.8"/>
<path d="M29.0824 42.0268C28.9908 44.9881 24.8083 47.8579 22.2439 46.7283C19.4046 43.2175 20.4426 40.653 25.3273 38.9739C27.2507 38.4244 29.1435 40.0119 29.0824 42.0268Z" fill="url(#paint16_linear_1023_407)" fill-opacity="0.8"/>
<path d="M124.181 103.726C124.517 101.04 125.952 99.6661 128.516 99.605C131.325 101.193 131.63 103.543 129.493 106.688C126.074 107.756 124.303 106.779 124.181 103.726Z" fill="url(#paint17_linear_1023_407)" fill-opacity="0.8"/>
<path d="M21.389 128.486C22.0301 125.738 23.5261 125.097 25.8768 126.593C26.2737 126.898 26.6706 127.234 27.0675 127.539C28.0749 128.333 28.5023 129.402 28.1055 130.623C26.1516 136.759 21.9691 130.226 21.389 128.486Z" fill="url(#paint18_linear_1023_407)" fill-opacity="0.8"/>
<path d="M66.3891 160.053C67.305 155.504 71.8844 156.634 71.3043 160.999C69.2894 164.632 67.6713 164.297 66.3891 160.053Z" fill="url(#paint19_linear_1023_407)" fill-opacity="0.8"/>
</g>
<path d="M54.1451 80.0514H52.6608C45.2826 80.0514 39.3014 85.9277 39.3014 93.1764C39.3014 100.425 43.7982 106.301 51.1764 106.301H86.8014C94.1796 106.301 98.6764 100.425 98.6764 93.1764C98.6764 85.9277 92.6952 80.0514 85.317 80.0514H83.8326V77.1347C83.8326 69.0806 77.1869 62.5514 68.9889 62.5514C60.7909 62.5514 54.1451 69.0806 54.1451 77.1347V80.0514Z" fill="white" fill-opacity="0.95"/>
<path d="M18.3105 199.499V188.219H25.7505V189.835H20.3745V193.035H25.3825V194.651H20.3745V199.499H18.3105ZM27.1345 199.499V193.483C27.1345 193.142 27.1238 192.795 27.1025 192.443C27.0918 192.091 27.0652 191.75 27.0225 191.419H28.9585L29.1825 193.627H28.8625C28.9692 193.094 29.1452 192.651 29.3905 192.299C29.6465 191.947 29.9558 191.686 30.3185 191.515C30.6812 191.345 31.0758 191.259 31.5025 191.259C31.6945 191.259 31.8492 191.27 31.9665 191.291C32.0838 191.302 32.2012 191.329 32.3185 191.371L32.3025 193.131C32.0998 193.046 31.9238 192.993 31.7745 192.971C31.6358 192.95 31.4598 192.939 31.2465 192.939C30.7878 192.939 30.3985 193.035 30.0785 193.227C29.7692 193.419 29.5345 193.686 29.3745 194.027C29.2252 194.369 29.1505 194.758 29.1505 195.195V199.499H27.1345ZM37.2108 199.659C35.8561 199.659 34.7948 199.286 34.0268 198.539C33.2588 197.793 32.8748 196.769 32.8748 195.467C32.8748 194.625 33.0401 193.889 33.3708 193.259C33.7014 192.63 34.1601 192.139 34.7468 191.787C35.3441 191.435 36.0374 191.259 36.8268 191.259C37.6054 191.259 38.2561 191.425 38.7788 191.755C39.3014 192.086 39.6961 192.55 39.9628 193.147C40.2401 193.745 40.3788 194.443 40.3788 195.243V195.771H34.4908V194.715H38.9548L38.6828 194.939C38.6828 194.193 38.5228 193.622 38.2028 193.227C37.8934 192.833 37.4401 192.635 36.8428 192.635C36.1814 192.635 35.6694 192.87 35.3068 193.339C34.9548 193.809 34.7788 194.465 34.7788 195.307V195.515C34.7788 196.39 34.9921 197.046 35.4188 197.483C35.8561 197.91 36.4694 198.123 37.2588 198.123C37.7174 198.123 38.1441 198.065 38.5388 197.947C38.9441 197.819 39.3281 197.617 39.6908 197.339L40.2828 198.683C39.8988 198.993 39.4401 199.233 38.9068 199.403C38.3734 199.574 37.8081 199.659 37.2108 199.659ZM45.9764 199.659C44.6217 199.659 43.5604 199.286 42.7924 198.539C42.0244 197.793 41.6404 196.769 41.6404 195.467C41.6404 194.625 41.8057 193.889 42.1364 193.259C42.467 192.63 42.9257 192.139 43.5124 191.787C44.1097 191.435 44.803 191.259 45.5924 191.259C46.371 191.259 47.0217 191.425 47.5444 191.755C48.067 192.086 48.4617 192.55 48.7284 193.147C49.0057 193.745 49.1444 194.443 49.1444 195.243V195.771H43.2564V194.715H47.7204L47.4484 194.939C47.4484 194.193 47.2884 193.622 46.9684 193.227C46.659 192.833 46.2057 192.635 45.6084 192.635C44.947 192.635 44.435 192.87 44.0724 193.339C43.7204 193.809 43.5444 194.465 43.5444 195.307V195.515C43.5444 196.39 43.7577 197.046 44.1844 197.483C44.6217 197.91 45.235 198.123 46.0244 198.123C46.483 198.123 46.9097 198.065 47.3044 197.947C47.7097 197.819 48.0937 197.617 48.4564 197.339L49.0484 198.683C48.6644 198.993 48.2057 199.233 47.6724 199.403C47.139 199.574 46.5737 199.659 45.9764 199.659ZM58.3486 199.659C57.6446 199.659 57.026 199.494 56.4926 199.163C55.9593 198.822 55.5433 198.337 55.2446 197.707C54.946 197.078 54.7966 196.326 54.7966 195.451C54.7966 194.577 54.946 193.83 55.2446 193.211C55.5433 192.582 55.9593 192.102 56.4926 191.771C57.026 191.43 57.6446 191.259 58.3486 191.259C59.0313 191.259 59.6286 191.43 60.1406 191.771C60.6633 192.102 61.01 192.55 61.1806 193.115H61.0046L61.1806 191.419H63.1006C63.0686 191.75 63.0366 192.086 63.0046 192.427C62.9833 192.769 62.9726 193.105 62.9726 193.435V199.499H60.9886L60.9726 197.835H61.1646C60.994 198.39 60.6473 198.833 60.1246 199.163C59.602 199.494 59.01 199.659 58.3486 199.659ZM58.9086 198.123C59.538 198.123 60.0446 197.905 60.4286 197.467C60.8126 197.019 61.0046 196.347 61.0046 195.451C61.0046 194.555 60.8126 193.889 60.4286 193.451C60.0446 193.014 59.538 192.795 58.9086 192.795C58.2793 192.795 57.7726 193.014 57.3886 193.451C57.0046 193.889 56.8126 194.555 56.8126 195.451C56.8126 196.347 56.9993 197.019 57.3726 197.467C57.7566 197.905 58.2686 198.123 58.9086 198.123ZM65.1505 199.499V193.435C65.1505 193.105 65.1398 192.769 65.1185 192.427C65.0972 192.086 65.0652 191.75 65.0225 191.419H66.9585L67.1185 193.019H66.9265C67.1825 192.454 67.5612 192.022 68.0625 191.723C68.5638 191.414 69.1452 191.259 69.8065 191.259C70.7558 191.259 71.4705 191.526 71.9505 192.059C72.4305 192.593 72.6705 193.425 72.6705 194.555V199.499H70.6705V194.651C70.6705 194.001 70.5425 193.537 70.2865 193.259C70.0412 192.971 69.6678 192.827 69.1665 192.827C68.5478 192.827 68.0572 193.019 67.6945 193.403C67.3318 193.787 67.1505 194.299 67.1505 194.939V199.499H65.1505ZM77.9271 199.659C77.2231 199.659 76.5991 199.494 76.0551 199.163C75.5218 198.822 75.1058 198.337 74.8071 197.707C74.5085 197.078 74.3591 196.326 74.3591 195.451C74.3591 194.577 74.5085 193.83 74.8071 193.211C75.1058 192.582 75.5218 192.102 76.0551 191.771C76.5991 191.43 77.2231 191.259 77.9271 191.259C78.5991 191.259 79.1911 191.425 79.7031 191.755C80.2258 192.075 80.5725 192.513 80.7431 193.067H80.5351V187.723H82.5351V199.499H80.5671V197.787H80.7591C80.5885 198.363 80.2418 198.822 79.7191 199.163C79.2071 199.494 78.6098 199.659 77.9271 199.659ZM78.4871 198.123C79.1165 198.123 79.6231 197.905 80.0071 197.467C80.3911 197.019 80.5831 196.347 80.5831 195.451C80.5831 194.555 80.3911 193.889 80.0071 193.451C79.6231 193.014 79.1165 192.795 78.4871 192.795C77.8578 192.795 77.3458 193.014 76.9511 193.451C76.5671 193.889 76.3751 194.555 76.3751 195.451C76.3751 196.347 76.5671 197.019 76.9511 197.467C77.3458 197.905 77.8578 198.123 78.4871 198.123ZM88.8956 193.851C88.8956 192.667 89.109 191.643 89.5356 190.779C89.973 189.915 90.597 189.249 91.4076 188.779C92.2183 188.299 93.1836 188.059 94.3036 188.059C95.413 188.059 96.373 188.299 97.1836 188.779C97.9943 189.249 98.6183 189.915 99.0556 190.779C99.5036 191.643 99.7276 192.662 99.7276 193.835C99.7276 195.019 99.5036 196.049 99.0556 196.923C98.6183 197.787 97.9943 198.459 97.1836 198.939C96.373 199.419 95.413 199.659 94.3036 199.659C93.1836 199.659 92.2183 199.419 91.4076 198.939C90.6076 198.459 89.989 197.787 89.5516 196.923C89.1143 196.049 88.8956 195.025 88.8956 193.851ZM91.0556 193.851C91.0556 195.121 91.3276 196.113 91.8716 196.827C92.4156 197.542 93.2263 197.899 94.3036 197.899C95.349 197.899 96.1543 197.542 96.7196 196.827C97.285 196.113 97.5676 195.121 97.5676 193.851C97.5676 192.571 97.285 191.579 96.7196 190.875C96.165 190.171 95.3596 189.819 94.3036 189.819C93.2263 189.819 92.4156 190.171 91.8716 190.875C91.3276 191.579 91.0556 192.571 91.0556 193.851ZM101.697 202.955V193.435C101.697 193.105 101.687 192.769 101.665 192.427C101.644 192.086 101.612 191.75 101.569 191.419H103.505L103.681 193.115H103.505C103.665 192.55 104.001 192.102 104.513 191.771C105.036 191.43 105.639 191.259 106.321 191.259C107.036 191.259 107.66 191.43 108.193 191.771C108.727 192.102 109.143 192.582 109.441 193.211C109.74 193.83 109.889 194.577 109.889 195.451C109.889 196.326 109.74 197.078 109.441 197.707C109.143 198.337 108.727 198.822 108.193 199.163C107.66 199.494 107.036 199.659 106.321 199.659C105.649 199.659 105.057 199.494 104.545 199.163C104.033 198.833 103.692 198.39 103.521 197.835H103.697V202.955H101.697ZM105.761 198.123C106.401 198.123 106.913 197.905 107.297 197.467C107.681 197.019 107.873 196.347 107.873 195.451C107.873 194.555 107.681 193.889 107.297 193.451C106.913 193.014 106.401 192.795 105.761 192.795C105.132 192.795 104.625 193.014 104.241 193.451C103.857 193.889 103.665 194.555 103.665 195.451C103.665 196.347 103.857 197.019 104.241 197.467C104.625 197.905 105.132 198.123 105.761 198.123ZM115.523 199.659C114.169 199.659 113.107 199.286 112.339 198.539C111.571 197.793 111.187 196.769 111.187 195.467C111.187 194.625 111.353 193.889 111.683 193.259C112.014 192.63 112.473 192.139 113.059 191.787C113.657 191.435 114.35 191.259 115.139 191.259C115.918 191.259 116.569 191.425 117.091 191.755C117.614 192.086 118.009 192.55 118.275 193.147C118.553 193.745 118.691 194.443 118.691 195.243V195.771H112.803V194.715H117.267L116.995 194.939C116.995 194.193 116.835 193.622 116.515 193.227C116.206 192.833 115.753 192.635 115.155 192.635C114.494 192.635 113.982 192.87 113.619 193.339C113.267 193.809 113.091 194.465 113.091 195.307V195.515C113.091 196.39 113.305 197.046 113.731 197.483C114.169 197.91 114.782 198.123 115.571 198.123C116.03 198.123 116.457 198.065 116.851 197.947C117.257 197.819 117.641 197.617 118.003 197.339L118.595 198.683C118.211 198.993 117.753 199.233 117.219 199.403C116.686 199.574 116.121 199.659 115.523 199.659ZM120.385 199.499V193.435C120.385 193.105 120.374 192.769 120.353 192.427C120.332 192.086 120.3 191.75 120.257 191.419H122.193L122.353 193.019H122.161C122.417 192.454 122.796 192.022 123.297 191.723C123.798 191.414 124.38 191.259 125.041 191.259C125.99 191.259 126.705 191.526 127.185 192.059C127.665 192.593 127.905 193.425 127.905 194.555V199.499H125.905V194.651C125.905 194.001 125.777 193.537 125.521 193.259C125.276 192.971 124.902 192.827 124.401 192.827C123.782 192.827 123.292 193.019 122.929 193.403C122.566 193.787 122.385 194.299 122.385 194.939V199.499H120.385ZM52.1137 223.659C51.207 223.659 50.3697 223.547 49.6017 223.323C48.8444 223.089 48.1937 222.769 47.6497 222.363L48.2897 220.747C48.6524 221.003 49.031 221.222 49.4257 221.403C49.8204 221.574 50.2417 221.707 50.6897 221.803C51.1377 221.889 51.6124 221.931 52.1137 221.931C52.9564 221.931 53.5644 221.793 53.9377 221.515C54.311 221.238 54.4977 220.875 54.4977 220.427C54.4977 220.033 54.3697 219.734 54.1137 219.531C53.8577 219.318 53.399 219.142 52.7377 219.003L50.9297 218.635C49.895 218.422 49.1217 218.065 48.6097 217.563C48.0977 217.062 47.8417 216.39 47.8417 215.547C47.8417 214.843 48.0284 214.23 48.4017 213.707C48.775 213.185 49.2977 212.779 49.9697 212.491C50.6417 212.203 51.4257 212.059 52.3217 212.059C53.1217 212.059 53.863 212.177 54.5457 212.411C55.2284 212.635 55.799 212.961 56.2577 213.387L55.6177 214.923C55.159 214.539 54.6577 214.257 54.1137 214.075C53.5697 213.883 52.9617 213.787 52.2897 213.787C51.5324 213.787 50.9404 213.937 50.5137 214.235C50.0977 214.523 49.8897 214.923 49.8897 215.435C49.8897 215.83 50.0177 216.145 50.2737 216.379C50.5404 216.614 50.9884 216.795 51.6177 216.923L53.4097 217.275C54.4764 217.489 55.2657 217.841 55.7777 218.331C56.2897 218.811 56.5457 219.462 56.5457 220.283C56.5457 220.955 56.3644 221.547 56.0017 222.059C55.639 222.561 55.127 222.955 54.4657 223.243C53.8044 223.521 53.0204 223.659 52.1137 223.659ZM61.9782 223.659C61.1462 223.659 60.4262 223.489 59.8182 223.147C59.2102 222.806 58.7355 222.321 58.3942 221.691C58.0635 221.062 57.8982 220.315 57.8982 219.451C57.8982 218.587 58.0635 217.846 58.3942 217.227C58.7355 216.598 59.2102 216.113 59.8182 215.771C60.4262 215.43 61.1462 215.259 61.9782 215.259C62.8102 215.259 63.5302 215.43 64.1382 215.771C64.7569 216.113 65.2315 216.598 65.5622 217.227C65.9035 217.846 66.0742 218.587 66.0742 219.451C66.0742 220.315 65.9035 221.062 65.5622 221.691C65.2315 222.321 64.7569 222.806 64.1382 223.147C63.5302 223.489 62.8102 223.659 61.9782 223.659ZM61.9782 222.123C62.6075 222.123 63.1089 221.905 63.4822 221.467C63.8555 221.019 64.0422 220.347 64.0422 219.451C64.0422 218.555 63.8555 217.889 63.4822 217.451C63.1089 217.014 62.6075 216.795 61.9782 216.795C61.3489 216.795 60.8475 217.014 60.4742 217.451C60.1009 217.889 59.9142 218.555 59.9142 219.451C59.9142 220.347 60.1009 221.019 60.4742 221.467C60.8475 221.905 61.3489 222.123 61.9782 222.123ZM70.7109 223.659C69.7189 223.659 68.9776 223.387 68.4869 222.843C67.9963 222.299 67.7509 221.467 67.7509 220.347V215.419H69.7509V220.331C69.7509 220.929 69.8736 221.371 70.1189 221.659C70.3643 221.937 70.7376 222.075 71.2389 222.075C71.8043 222.075 72.2629 221.883 72.6149 221.499C72.9776 221.115 73.1589 220.609 73.1589 219.979V215.419H75.1589V223.499H73.2069V221.851H73.4309C73.1963 222.427 72.8389 222.875 72.3589 223.195C71.8896 223.505 71.3403 223.659 70.7109 223.659ZM77.3142 223.499V217.483C77.3142 217.142 77.3035 216.795 77.2822 216.443C77.2715 216.091 77.2449 215.75 77.2022 215.419H79.1382L79.3622 217.627H79.0422C79.1489 217.094 79.3249 216.651 79.5702 216.299C79.8262 215.947 80.1355 215.686 80.4982 215.515C80.8609 215.345 81.2555 215.259 81.6822 215.259C81.8742 215.259 82.0289 215.27 82.1462 215.291C82.2635 215.302 82.3809 215.329 82.4982 215.371L82.4822 217.131C82.2795 217.046 82.1035 216.993 81.9542 216.971C81.8155 216.95 81.6395 216.939 81.4262 216.939C80.9675 216.939 80.5782 217.035 80.2582 217.227C79.9489 217.419 79.7142 217.686 79.5542 218.027C79.4049 218.369 79.3302 218.758 79.3302 219.195V223.499H77.3142ZM87.1984 223.659C86.3664 223.659 85.6358 223.489 85.0064 223.147C84.3878 222.806 83.9078 222.321 83.5664 221.691C83.2251 221.051 83.0544 220.294 83.0544 219.419C83.0544 218.545 83.2251 217.798 83.5664 217.179C83.9184 216.561 84.4038 216.086 85.0224 215.755C85.6411 215.425 86.3664 215.259 87.1984 215.259C87.7318 215.259 88.2491 215.345 88.7504 215.515C89.2624 215.675 89.6784 215.91 89.9984 216.219L89.3904 217.611C89.1024 217.345 88.7771 217.147 88.4144 217.019C88.0624 216.881 87.7158 216.811 87.3744 216.811C86.6598 216.811 86.0998 217.035 85.6944 217.483C85.2998 217.931 85.1024 218.582 85.1024 219.435C85.1024 220.289 85.2998 220.945 85.6944 221.403C86.0998 221.862 86.6598 222.091 87.3744 222.091C87.7051 222.091 88.0464 222.027 88.3984 221.899C88.7611 221.771 89.0918 221.574 89.3904 221.307L89.9984 222.683C89.6678 222.993 89.2464 223.233 88.7344 223.403C88.2331 223.574 87.7211 223.659 87.1984 223.659ZM95.2967 223.659C93.942 223.659 92.8807 223.286 92.1127 222.539C91.3447 221.793 90.9607 220.769 90.9607 219.467C90.9607 218.625 91.126 217.889 91.4567 217.259C91.7874 216.63 92.246 216.139 92.8327 215.787C93.43 215.435 94.1234 215.259 94.9127 215.259C95.6914 215.259 96.342 215.425 96.8647 215.755C97.3874 216.086 97.782 216.55 98.0487 217.147C98.326 217.745 98.4647 218.443 98.4647 219.243V219.771H92.5767V218.715H97.0407L96.7687 218.939C96.7687 218.193 96.6087 217.622 96.2887 217.227C95.9794 216.833 95.526 216.635 94.9287 216.635C94.2674 216.635 93.7554 216.87 93.3927 217.339C93.0407 217.809 92.8647 218.465 92.8647 219.307V219.515C92.8647 220.39 93.078 221.046 93.5047 221.483C93.942 221.91 94.5554 222.123 95.3447 222.123C95.8034 222.123 96.23 222.065 96.6247 221.947C97.03 221.819 97.414 221.617 97.7767 221.339L98.3687 222.683C97.9847 222.993 97.526 223.233 96.9927 223.403C96.4594 223.574 95.894 223.659 95.2967 223.659Z" fill="#5C5CA0"/>
<defs>
<filter id="filter0_d_1023_407" x="0.47583" y="24.5006" width="145.048" height="148.999" filterUnits="userSpaceOnUse" color-interpolation-filters="sRGB">
<feFlood flood-opacity="0" result="BackgroundImageFix"/>
<feColorMatrix in="SourceAlpha" type="matrix" values="0 0 0 0 0 0 0 0 0 0 0 0 0 0 0 0 0 0 127 0" result="hardAlpha"/>
<feOffset dy="4"/>
<feGaussianBlur stdDeviation="2"/>
<feComposite in2="hardAlpha" operator="out"/>
<feColorMatrix type="matrix" values="0 0 0 0 0 0 0 0 0 0 0 0 0 0 0 0 0 0 0.1 0"/>
<feBlend mode="normal" in2="BackgroundImageFix" result="effect1_dropShadow_1023_407"/>
<feBlend mode="normal" in="SourceGraphic" in2="effect1_dropShadow_1023_407" result="shape"/>
</filter>
<linearGradient id="paint0_linear_1023_407" x1="6.47583" y1="96" x2="145.291" y2="96" gradientUnits="userSpaceOnUse">
<stop stop-color="#894DF6"/>
<stop offset="1" stop-color="#F7288E"/>
</linearGradient>
<linearGradient id="paint1_linear_1023_407" x1="6.47583" y1="96" x2="145.291" y2="96" gradientUnits="userSpaceOnUse">
<stop stop-color="#894DF6"/>
<stop offset="1" stop-color="#F7288E"/>
</linearGradient>
<linearGradient id="paint2_linear_1023_407" x1="6.47583" y1="96" x2="145.291" y2="96" gradientUnits="userSpaceOnUse">
<stop stop-color="#894DF6"/>
<stop offset="1" stop-color="#F7288E"/>
</linearGradient>
<linearGradient id="paint3_linear_1023_407" x1="6.47583" y1="96" x2="145.291" y2="96" gradientUnits="userSpaceOnUse">
<stop stop-color="#894DF6"/>
<stop offset="1" stop-color="#F7288E"/>
</linearGradient>
<linearGradient id="paint4_linear_1023_407" x1="6.47583" y1="96" x2="145.291" y2="96" gradientUnits="userSpaceOnUse">
<stop stop-color="#894DF6"/>
<stop offset="1" stop-color="#F7288E"/>
</linearGradient>
<linearGradient id="paint5_linear_1023_407" x1="6.47583" y1="96" x2="145.291" y2="96" gradientUnits="userSpaceOnUse">
<stop stop-color="#894DF6"/>
<stop offset="1" stop-color="#F7288E"/>
</linearGradient>
<linearGradient id="paint6_linear_1023_407" x1="6.47583" y1="96" x2="145.291" y2="96" gradientUnits="userSpaceOnUse">
<stop stop-color="#894DF6"/>
<stop offset="1" stop-color="#F7288E"/>
</linearGradient>
<linearGradient id="paint7_linear_1023_407" x1="6.47583" y1="96" x2="145.291" y2="96" gradientUnits="userSpaceOnUse">
<stop stop-color="#894DF6"/>
<stop offset="1" stop-color="#F7288E"/>
</linearGradient>
<linearGradient id="paint8_linear_1023_407" x1="6.47583" y1="96" x2="145.291" y2="96" gradientUnits="userSpaceOnUse">
<stop stop-color="#894DF6"/>
<stop offset="1" stop-color="#F7288E"/>
</linearGradient>
<linearGradient id="paint9_linear_1023_407" x1="6.47583" y1="96" x2="145.291" y2="96" gradientUnits="userSpaceOnUse">
<stop stop-color="#894DF6"/>
<stop offset="1" stop-color="#F7288E"/>
</linearGradient>
<linearGradient id="paint10_linear_1023_407" x1="4.47583" y1="94" x2="143.291" y2="94" gradientUnits="userSpaceOnUse">
<stop stop-color="#894DF6"/>
<stop offset="1" stop-color="#F7288E"/>
</linearGradient>
<linearGradient id="paint11_linear_1023_407" x1="4.47583" y1="94" x2="143.291" y2="94" gradientUnits="userSpaceOnUse">
<stop stop-color="#894DF6"/>
<stop offset="1" stop-color="#F7288E"/>
</linearGradient>
<linearGradient id="paint12_linear_1023_407" x1="4.47583" y1="94" x2="143.291" y2="94" gradientUnits="userSpaceOnUse">
<stop stop-color="#894DF6"/>
<stop offset="1" stop-color="#F7288E"/>
</linearGradient>
<linearGradient id="paint13_linear_1023_407" x1="4.47583" y1="94" x2="143.291" y2="94" gradientUnits="userSpaceOnUse">
<stop stop-color="#894DF6"/>
<stop offset="1" stop-color="#F7288E"/>
</linearGradient>
<linearGradient id="paint14_linear_1023_407" x1="4.47583" y1="94" x2="143.291" y2="94" gradientUnits="userSpaceOnUse">
<stop stop-color="#894DF6"/>
<stop offset="1" stop-color="#F7288E"/>
</linearGradient>
<linearGradient id="paint15_linear_1023_407" x1="4.47583" y1="94" x2="143.291" y2="94" gradientUnits="userSpaceOnUse">
<stop stop-color="#894DF6"/>
<stop offset="1" stop-color="#F7288E"/>
</linearGradient>
<linearGradient id="paint16_linear_1023_407" x1="4.47583" y1="94" x2="143.291" y2="94" gradientUnits="userSpaceOnUse">
<stop stop-color="#894DF6"/>
<stop offset="1" stop-color="#F7288E"/>
</linearGradient>
<linearGradient id="paint17_linear_1023_407" x1="4.47583" y1="94" x2="143.291" y2="94" gradientUnits="userSpaceOnUse">
<stop stop-color="#894DF6"/>
<stop offset="1" stop-color="#F7288E"/>
</linearGradient>
<linearGradient id="paint18_linear_1023_407" x1="4.47583" y1="94" x2="143.291" y2="94" gradientUnits="userSpaceOnUse">
<stop stop-color="#894DF6"/>
<stop offset="1" stop-color="#F7288E"/>
</linearGradient>
<linearGradient id="paint19_linear_1023_407" x1="4.47583" y1="94" x2="143.291" y2="94" gradientUnits="userSpaceOnUse">
<stop stop-color="#894DF6"/>
<stop offset="1" stop-color="#F7288E"/>
</linearGradient>
</defs>
</svg>
