<svg width="31" height="30" viewBox="0 0 31 30" fill="none" xmlns="http://www.w3.org/2000/svg">
<path d="M30.6937 17.271C30.6937 18.3755 29.7982 19.271 28.6937 19.271H22.3968C21.2923 19.271 20.3968 20.1664 20.3968 21.271V27.4413C20.3968 28.5459 19.5014 29.4413 18.3968 29.4413H12.8101C11.7056 29.4413 10.8101 28.5459 10.8101 27.4413V21.271C10.8101 20.1664 9.9147 19.271 8.81013 19.271H2.51331C1.40874 19.271 0.513306 18.3755 0.513306 17.271V12.5291C0.513306 11.4245 1.40874 10.5291 2.51331 10.5291H8.81013C9.9147 10.5291 10.8101 9.63365 10.8101 8.52908V2.30164C10.8101 1.19707 11.7056 0.301636 12.8101 0.301636H18.3968C19.5014 0.301636 20.3968 1.19707 20.3968 2.30164V8.52908C20.3968 9.63365 21.2923 10.5291 22.3968 10.5291H28.6937C29.7982 10.5291 30.6937 11.4245 30.6937 12.5291V17.271Z" fill="white"/>
</svg>
