<svg width="39" height="33" viewBox="0 0 39 33" fill="none" xmlns="http://www.w3.org/2000/svg">
<path d="M35.0313 8.19036C35.0313 8.58795 35.0313 8.90602 35.0313 9.30361C35.0313 20.3566 27.0176 33 12.2877 33C7.70842 33 3.51076 31.6482 0 29.2626C0.610568 29.3422 1.22114 29.4217 1.90802 29.4217C5.64775 29.4217 9.08219 28.0699 11.8297 25.8434C8.31898 25.7639 5.34247 23.3783 4.35029 20.0386C4.88454 20.1181 5.34247 20.1976 5.87671 20.1976C6.5636 20.1976 7.32681 20.0386 7.93738 19.8795C4.27397 19.0843 1.52642 15.7446 1.52642 11.6892V11.6096C2.59491 12.2458 3.89237 12.5639 5.18982 12.6434C2.97652 11.1325 1.60274 8.58795 1.60274 5.7253C1.60274 4.13494 1.98434 2.70361 2.67123 1.51084C6.63992 6.52048 12.593 9.86024 19.2329 10.2578C19.0802 9.62169 19.0039 8.98554 19.0039 8.3494C19.0039 3.73735 22.591 0 27.0176 0C29.3072 0 31.3679 0.954217 32.8943 2.6241C34.6497 2.22651 36.4051 1.51084 37.9315 0.556626C37.3209 2.54458 36.0998 4.13494 34.4207 5.16867C36.0235 5.00964 37.6262 4.53253 39 3.89639C37.9315 5.56626 36.5577 6.99759 35.0313 8.19036Z" fill="#A076F9"/>
</svg>
