<svg width="39" height="39" viewBox="0 0 39 39" fill="none" xmlns="http://www.w3.org/2000/svg">
<path d="M19.5 0C30.1935 0 39 8.80645 39 19.5C39 30.2722 30.1935 39 19.5 39C8.72782 39 0 30.2722 0 19.5C0 8.80645 8.72782 0 19.5 0ZM32.3165 9.04234C32.002 9.51411 29.25 13.0524 23.0383 15.5685C23.6673 16.8266 24.0605 17.7702 24.5323 18.871C30.0363 18.1633 35.5403 19.2641 36.0907 19.4214C36.0907 15.4899 34.6754 11.873 32.3165 9.04234ZM30.5081 7.07661C26.4194 3.45968 20.8367 2.12298 15.5685 3.38105C16.0403 4.01008 19.0282 8.09879 21.7802 13.131C27.6774 10.9294 30.1935 7.54839 30.5081 7.07661ZM12.3448 4.48185C7.70565 6.68347 4.24597 11.0081 3.14516 16.119C3.93145 16.1976 10.7722 16.1976 18.5565 14.1532C15.8044 9.1996 12.8165 5.11089 12.3448 4.48185ZM2.83065 19.5786C2.83065 23.8246 4.40323 27.756 7.07661 30.6653C9.75 26.1048 15.254 21.2298 21.3085 19.5C20.8367 18.5565 20.4435 17.6129 19.8931 16.6694C11.6371 19.1855 3.53831 19.1069 2.83065 19.0282C2.83065 19.2641 2.83065 19.4214 2.83065 19.5786ZM9.1996 32.7097C14.1532 36.5625 20.6008 37.1915 25.9476 34.9113C25.7117 33.4173 24.7681 28.3065 22.4093 22.252C15.7258 24.5323 11.0081 29.1714 9.1996 32.7097ZM28.7782 33.3387C32.4738 30.8226 35.1472 26.8125 35.9335 22.1734C35.3044 22.0161 30.744 20.6794 25.5544 21.4657C27.6774 27.5202 28.621 32.3952 28.7782 33.3387Z" fill="#A076F9"/>
</svg>
